<?xml version="1.0" standalone="no"?>
<!DOCTYPE svg PUBLIC "-//W3C//DTD SVG 20010904//EN"
 "http://www.w3.org/TR/2001/REC-SVG-20010904/DTD/svg10.dtd">
<svg version="1.0" xmlns="http://www.w3.org/2000/svg"
 width="16.000000pt" height="16.000000pt" viewBox="0 0 16.000000 16.000000"
 preserveAspectRatio="xMidYMid meet">
<metadata>
Created by potrace 1.11, written by Peter Selinger 2001-2013
</metadata>
<g transform="translate(0.000000,16.000000) scale(0.003125,-0.003125)"
fill="#000000" stroke="none">
<path d="M2115 5040 c-2 -3 -6 -43 -9 -90 -4 -47 -9 -105 -11 -130 -3 -25 -7
-81 -10 -125 -5 -74 -10 -127 -20 -215 -2 -19 -7 -64 -10 -100 -3 -36 -8 -76
-10 -90 -2 -14 -7 -45 -10 -70 -4 -25 -13 -85 -20 -135 -8 -49 -17 -108 -20
-130 -4 -22 -8 -47 -10 -55 -2 -8 -7 -31 -10 -50 -50 -309 -167 -826 -245
-1075 -22 -71 -42 -138 -45 -148 -8 -33 -86 -261 -136 -394 -27 -72 -49 -134
-49 -136 0 -17 -168 -406 -236 -547 -48 -99 -53 -78 54 -250 122 -195 366
-510 382 -493 10 10 122 415 136 490 2 12 20 86 38 165 28 116 89 400 111 518
3 14 7 36 10 50 8 40 17 93 20 117 2 12 6 34 9 50 3 15 8 44 11 63 3 19 10 58
15 85 5 28 12 67 15 88 6 40 6 43 34 232 11 72 22 155 26 185 3 30 8 66 10 80
2 14 7 44 10 68 3 23 7 59 10 80 2 20 7 62 10 92 3 30 8 71 10 90 4 33 10 94
20 205 3 28 8 74 11 103 3 29 7 72 9 95 3 46 13 172 20 252 2 28 7 91 10 140
3 50 7 117 10 150 9 135 23 424 31 662 l6 182 -87 -2 c-48 -1 -88 -4 -90 -7z"/>
<path d="M2480 4928 c-1 -165 -8 -585 -15 -788 -9 -285 -16 -491 -20 -610 -2
-63 -7 -185 -10 -270 -3 -85 -7 -193 -10 -240 -3 -47 -7 -137 -10 -200 -3 -63
-7 -149 -10 -190 -13 -214 -16 -259 -20 -310 -2 -30 -7 -93 -10 -140 -10 -140
-15 -203 -20 -240 -2 -19 -7 -73 -10 -120 -3 -47 -7 -96 -10 -110 -2 -14 -6
-59 -10 -100 -3 -41 -7 -84 -9 -95 -2 -11 -7 -51 -10 -90 -4 -38 -9 -81 -11
-95 -2 -14 -7 -50 -10 -80 -3 -30 -7 -68 -9 -85 -2 -16 -7 -59 -11 -95 -4 -36
-9 -73 -10 -82 -2 -9 -6 -45 -10 -80 -3 -35 -8 -70 -10 -78 -2 -8 -6 -37 -10
-65 -7 -61 -12 -94 -30 -210 -25 -162 -27 -180 -29 -200 -1 -24 138 -132 289
-223 l99 -61 36 21 c57 34 255 164 276 181 10 9 34 28 51 42 26 21 32 33 28
53 -2 15 -7 50 -10 77 -3 28 -8 65 -11 83 -2 18 -7 54 -10 80 -3 26 -7 58 -9
72 -2 14 -7 45 -10 70 -14 117 -17 139 -25 195 -5 33 -12 87 -15 120 -3 33 -8
71 -10 85 -3 14 -7 57 -10 95 -3 39 -8 81 -10 95 -3 14 -7 52 -10 85 -4 33 -9
78 -11 100 -3 22 -7 67 -9 100 -3 33 -7 74 -9 90 -3 17 -7 66 -11 110 -3 44
-8 96 -10 115 -4 32 -8 88 -20 260 -3 36 -7 94 -10 130 -6 77 -15 217 -20 315
-2 39 -7 122 -10 185 -4 63 -8 160 -10 215 -2 55 -7 163 -10 240 -3 77 -7 194
-10 260 -8 226 -17 690 -20 1090 -2 220 -4 403 -4 408 -1 4 -39 7 -86 7 l-85
0 0 -122z"/>
<path d="M2863 5041 c-5 -3 -8 -28 -7 -56 2 -84 16 -436 19 -500 2 -33 6 -114
9 -180 3 -66 8 -149 11 -185 3 -36 7 -103 10 -150 3 -47 8 -105 10 -130 2 -25
6 -79 10 -120 17 -204 33 -371 40 -420 2 -14 6 -56 10 -95 3 -38 7 -81 10 -95
2 -14 7 -47 10 -75 9 -86 14 -128 25 -205 6 -41 13 -93 16 -115 2 -22 7 -52 9
-66 3 -15 7 -47 10 -70 5 -37 43 -273 61 -374 86 -484 166 -836 286 -1269 l41
-149 39 44 c117 132 331 432 418 584 l23 40 -31 46 c-65 96 -219 456 -347 809
-143 397 -285 914 -360 1315 -15 82 -65 374 -69 405 -2 19 -9 73 -15 120 -7
47 -14 103 -17 125 -3 22 -7 51 -9 65 -2 14 -6 48 -10 75 -3 28 -8 66 -10 85
-17 132 -31 318 -39 502 -1 15 -3 29 -6 31 -8 8 -138 15 -147 8z"/>
<path d="M1898 5026 c-1 -2 -50 -7 -108 -10 -58 -4 -118 -9 -135 -11 -16 -2
-61 -7 -100 -10 -38 -4 -86 -9 -105 -11 -86 -10 -127 -15 -150 -19 -14 -2 -47
-7 -75 -10 -50 -6 -268 -41 -315 -50 -33 -7 -179 -35 -210 -41 -50 -10 -141
-35 -164 -45 -29 -14 -30 -33 -31 -424 0 -266 5 -418 19 -564 3 -24 7 -74 11
-110 3 -36 8 -79 10 -96 3 -16 7 -52 10 -80 38 -341 152 -863 259 -1183 54
-161 112 -312 124 -324 6 -6 82 107 151 226 108 188 139 243 199 364 146 290
268 592 364 902 31 100 86 298 94 340 3 14 9 39 14 55 5 17 19 77 30 135 12
58 24 114 26 125 11 51 63 376 69 425 3 30 8 66 10 80 5 31 13 105 20 190 3
36 8 81 10 101 4 26 2 38 -9 42 -8 3 -16 4 -18 3z"/>
<path d="M3214 4983 c3 -26 8 -75 11 -108 7 -66 11 -107 20 -175 13 -102 17
-129 31 -220 9 -52 18 -108 20 -125 6 -43 80 -395 103 -490 124 -509 337
-1043 599 -1500 93 -163 96 -169 102 -175 3 -3 11 -16 19 -30 8 -14 29 -49 47
-77 l31 -53 21 58 c46 127 147 455 177 572 2 8 22 85 44 170 36 140 101 465
115 580 4 25 8 59 10 75 10 70 36 305 41 362 17 214 20 300 20 583 0 173 -3
331 -8 351 -9 45 -37 57 -197 85 -14 2 -36 7 -50 10 -26 6 -38 8 -270 48 -164
28 -272 43 -418 61 -23 3 -59 7 -80 9 -20 3 -68 8 -107 11 -38 4 -81 8 -95 10
-14 2 -62 7 -108 10 l-83 6 5 -48z"/>
</g>
</svg>
