<?xml version="1.0" standalone="no"?>
<!DOCTYPE svg PUBLIC "-//W3C//DTD SVG 20010904//EN"
 "http://www.w3.org/TR/2001/REC-SVG-20010904/DTD/svg10.dtd">
<svg version="1.0" xmlns="http://www.w3.org/2000/svg"
 width="16.000000pt" height="16.000000pt" viewBox="0 0 16.000000 16.000000"
 preserveAspectRatio="xMidYMid meet">
<metadata>
Created by potrace 1.11, written by Peter Selinger 2001-2013
</metadata>
<g transform="translate(0.000000,16.000000) scale(0.003125,-0.003125)"
fill="#000000" stroke="none">
<path d="M2270 5099 c-74 -10 -148 -21 -165 -24 -209 -43 -334 -79 -493 -141
-641 -251 -1159 -760 -1417 -1393 -59 -144 -118 -332 -139 -441 -45 -237 -51
-299 -51 -550 1 -184 4 -241 20 -345 3 -16 7 -43 9 -60 9 -66 39 -195 67 -294
164 -574 535 -1082 1037 -1420 296 -199 673 -347 1007 -397 22 -3 51 -8 65
-10 119 -20 470 -26 605 -11 151 16 131 14 245 37 30 6 69 14 85 17 122 21
388 118 564 206 312 156 574 365 830 662 257 299 482 793 546 1198 24 150 30
235 30 432 0 228 -8 316 -46 504 -85 421 -281 825 -559 1151 -87 102 -215 230
-231 230 -8 0 -36 -24 -62 -54 -51 -58 -71 -80 -128 -142 -19 -21 -77 -86
-128 -144 -52 -58 -108 -121 -125 -140 -17 -19 -62 -71 -101 -115 -38 -43 -77
-86 -85 -95 -42 -45 -220 -250 -220 -253 0 -1 261 -2 581 -2 319 0 582 -2 584
-6 2 -3 -11 -21 -28 -40 -18 -20 -55 -62 -84 -95 -28 -32 -62 -71 -75 -85 -12
-14 -50 -56 -83 -94 -33 -37 -71 -80 -85 -95 -14 -15 -44 -49 -67 -77 -24 -27
-53 -61 -65 -75 -42 -45 -112 -124 -173 -194 -33 -37 -67 -75 -75 -84 -8 -9
-30 -34 -49 -55 -33 -39 -155 -177 -176 -199 -6 -6 -62 -69 -124 -141 -63 -71
-121 -137 -130 -146 -9 -9 -27 -29 -40 -45 -21 -24 -257 -291 -375 -424 -47
-53 -177 -200 -211 -239 -16 -18 -34 -39 -40 -45 -19 -21 -240 -271 -310 -351
-38 -44 -77 -87 -85 -95 -24 -26 -77 -86 -190 -215 -58 -66 -109 -125 -115
-131 -5 -6 -36 -40 -67 -75 -109 -122 -118 -133 -118 -126 0 3 43 133 96 289
52 156 153 454 223 663 139 410 248 732 347 1024 35 102 61 188 59 192 -3 3
-163 6 -356 5 -193 0 -353 2 -355 5 -2 4 78 247 177 540 357 1055 669 1994
669 2011 0 16 -13 17 -142 16 -79 -1 -204 -10 -278 -19z"/>
</g>
</svg>
