<?xml version="1.0" standalone="no"?>
<!DOCTYPE svg PUBLIC "-//W3C//DTD SVG 20010904//EN"
 "http://www.w3.org/TR/2001/REC-SVG-20010904/DTD/svg10.dtd">
<svg version="1.0" xmlns="http://www.w3.org/2000/svg"
 width="700.000000pt" height="700.000000pt" viewBox="0 0 700.000000 700.000000"
 preserveAspectRatio="xMidYMid meet">
<metadata>
Created by potrace 1.11, written by Peter Selinger 2001-2013
</metadata>
<g transform="translate(0.000000,700.000000) scale(0.100000,-0.100000)"
fill="#000000" stroke="none">
<path d="M3647 5704 c-1 -1 -87 -5 -192 -8 -210 -7 -257 -11 -435 -31 -127
-14 -422 -91 -583 -150 -318 -119 -639 -314 -912 -555 -50 -44 -225 -219 -285
-285 -291 -320 -586 -794 -770 -1235 -124 -298 -334 -865 -354 -956 -6 -28 -4
-32 19 -38 101 -26 2978 -26 3305 -1 209 16 436 86 595 184 84 52 182 133 244
200 84 92 192 244 181 255 -4 4 -46 8 -93 9 -75 0 -90 -3 -132 -27 -25 -15
-76 -56 -113 -90 -282 -263 -435 -334 -733 -338 -247 -4 -412 47 -577 179
-115 93 -169 158 -194 233 l-15 45 -629 2 c-649 2 -880 6 -890 16 -14 14 189
554 306 813 162 360 380 675 660 954 288 288 581 474 930 590 243 80 420 108
805 125 382 18 435 27 435 75 0 10 -10 22 -22 26 -19 6 -544 14 -551 8z"/>
<path d="M5207 4683 c-1 -1 -310 -4 -687 -8 -377 -3 -734 -8 -795 -10 -150 -6
-276 -14 -284 -19 -3 -2 -24 -7 -46 -10 -22 -4 -47 -8 -55 -11 -8 -2 -28 -6
-44 -9 -104 -18 -324 -118 -421 -191 -131 -98 -355 -345 -355 -390 0 -8 15
-17 34 -21 43 -7 152 1 186 14 14 6 70 55 125 109 113 111 193 170 310 230
150 77 206 87 455 87 223 -1 274 -10 386 -67 121 -62 286 -214 330 -303 22
-44 31 -54 53 -55 14 0 37 -2 51 -5 14 -2 189 -6 390 -9 619 -9 974 -16 1005
-19 17 -2 35 -4 41 -5 7 -1 -4 -45 -26 -113 -42 -125 -116 -332 -131 -363 -5
-11 -36 -90 -68 -176 -106 -280 -238 -514 -440 -784 -123 -165 -303 -360 -446
-485 -89 -78 -251 -190 -371 -256 -24 -13 -63 -35 -87 -48 -65 -35 -244 -111
-322 -135 -252 -80 -462 -113 -850 -136 -270 -16 -338 -23 -373 -36 -15 -6
-22 -16 -20 -27 5 -25 66 -29 383 -26 376 3 626 12 800 30 89 8 106 11 166 23
30 6 63 13 74 15 79 15 398 120 491 161 364 162 613 334 914 635 254 253 430
477 594 755 42 72 81 137 86 145 29 47 156 303 203 410 166 378 366 896 395
1027 11 46 11 46 -53 58 -50 9 -1590 27 -1598 18z"/>
<path d="M3524 4229 c-171 -22 -309 -92 -445 -228 -110 -111 -184 -232 -228
-376 -32 -104 -36 -128 -35 -260 1 -151 7 -180 56 -283 62 -131 174 -230 296
-261 82 -21 260 -29 357 -15 96 13 219 73 347 171 95 72 92 67 62 123 -14 26
-43 68 -63 93 l-37 45 -55 -40 c-76 -55 -172 -108 -225 -124 -189 -57 -372 10
-456 167 -20 38 -23 58 -23 154 0 61 3 131 7 157 11 73 61 167 128 240 112
122 228 180 360 180 116 0 196 -37 323 -149 l38 -33 45 34 c67 51 121 102 134
125 14 28 -5 64 -61 115 -100 91 -224 149 -343 161 -28 3 -67 7 -86 9 -19 2
-63 0 -96 -5z"/>
</g>
</svg>
